<svg width="139" height="139" viewBox="0 0 139 139" fill="none" xmlns="http://www.w3.org/2000/svg">
<path d="M129.934 72.0615L130.46 72.1063L130.136 75.9205L129.61 75.8758L129.934 72.0615Z" fill="black"/>
<path d="M125.956 80.3959L132.368 81.7461L132.612 80.5836L133.141 80.6949L132.49 83.7832L131.962 83.6719L132.212 82.4859L125.8 81.1356L125.956 80.3959Z" fill="black"/>
<path d="M125.288 83.4349L132.105 85.3935L131.498 87.5041C131.39 87.8808 131.209 88.1619 130.956 88.3472C130.711 88.5347 130.392 88.5722 130 88.4595L129.17 88.2209C128.954 88.159 128.771 88.073 128.619 87.9629C128.476 87.855 128.369 87.7329 128.3 87.5965C128.223 87.4579 128.188 87.3062 128.194 87.1414C128.205 86.9865 128.221 86.8579 128.242 86.7558L128.265 86.7624C128.221 86.9162 128.16 87.0567 128.082 87.1841C128.009 87.3214 127.908 87.4256 127.779 87.4968C127.639 87.5812 127.475 87.6299 127.288 87.6428C127.107 87.6656 126.905 87.645 126.682 87.5809L125.69 87.2959C125.305 87.1854 125.031 87.04 124.866 86.8595C124.702 86.679 124.613 86.4663 124.6 86.2212C124.593 85.986 124.632 85.7185 124.718 85.4186L125.288 83.4349ZM125.495 84.2808L125.17 85.4111C125.119 85.5879 125.098 85.7483 125.107 85.8923C125.123 86.0385 125.194 86.1672 125.32 86.2783C125.452 86.3994 125.664 86.5019 125.956 86.5859L126.89 86.8543C127.259 86.9603 127.529 86.9338 127.7 86.7747C127.876 86.6256 128.004 86.4126 128.083 86.1358L128.378 85.1093L125.495 84.2808ZM128.862 85.2485L128.574 86.2519C128.486 86.5594 128.503 86.8183 128.626 87.0283C128.746 87.2461 128.968 87.4014 129.291 87.4942L130.075 87.7195C130.36 87.8012 130.589 87.784 130.764 87.6678C130.945 87.5615 131.066 87.4007 131.128 87.1854L131.469 85.9974L128.862 85.2485Z" fill="black"/>
<path d="M123.205 89.4768C123.327 89.1551 123.472 88.8851 123.64 88.6667C123.809 88.4482 124.037 88.3082 124.326 88.2466C124.619 88.1954 125.005 88.2606 125.484 88.4422L129.22 89.8601C129.639 90.019 129.926 90.2093 130.081 90.4309C130.234 90.66 130.296 90.9144 130.267 91.1943C130.245 91.477 130.173 91.7791 130.051 92.1007C129.929 92.4223 129.784 92.6924 129.615 92.9108C129.444 93.1367 129.227 93.281 128.963 93.3436C128.697 93.4137 128.358 93.3707 127.947 93.2146L124.222 91.801C123.736 91.6165 123.401 91.4041 123.219 91.1636C123.041 90.9335 122.963 90.6771 122.985 90.3944C123.003 90.1192 123.077 89.8133 123.205 89.4768ZM123.638 89.654C123.564 89.8485 123.523 90.0253 123.514 90.1845C123.509 90.3539 123.562 90.5067 123.673 90.643C123.792 90.782 123.997 90.9069 124.288 91.0176L128.215 92.5078C128.507 92.6185 128.739 92.6597 128.913 92.6313C129.093 92.6058 129.235 92.5268 129.336 92.3943C129.445 92.2645 129.535 92.1062 129.606 91.9192C129.68 91.7247 129.719 91.5428 129.724 91.3733C129.733 91.2142 129.678 91.0651 129.56 90.926C129.449 90.7898 129.248 90.6664 128.956 90.5557L125.029 89.0654C124.737 88.9547 124.501 88.9121 124.32 88.9376C124.147 88.966 124.007 89.0413 123.901 89.1635C123.799 89.2961 123.712 89.4596 123.638 89.654Z" fill="black"/>
<path d="M122.254 92.2566L128.667 95.2846L127.36 98.0517L126.872 97.8211L127.845 95.7594L125.545 94.6732L124.766 96.3226L124.224 96.0664L125.002 94.417L122.409 93.1925L121.435 95.2542L120.947 95.0237L122.254 92.2566ZM128.762 96.4312C128.81 96.3299 128.884 96.2585 128.983 96.2169C129.086 96.1859 129.185 96.1926 129.279 96.237C129.373 96.2815 129.437 96.3516 129.471 96.4474C129.502 96.5505 129.494 96.6527 129.446 96.754C129.398 96.8552 129.326 96.9231 129.231 96.9574C129.135 96.9918 129.04 96.9868 128.946 96.9424C128.852 96.898 128.784 96.8261 128.742 96.7269C128.708 96.631 128.715 96.5325 128.762 96.4312ZM128.265 97.4838C128.313 97.3825 128.387 97.311 128.486 97.2694C128.589 97.2385 128.688 97.2452 128.782 97.2896C128.876 97.334 128.94 97.4041 128.974 97.5C129.005 97.6031 128.997 97.7053 128.949 97.8065C128.901 97.9078 128.829 97.9756 128.734 98.01C128.638 98.0444 128.543 98.0394 128.449 97.995C128.355 97.9505 128.287 97.8787 128.245 97.7794C128.211 97.6836 128.218 97.585 128.265 97.4838Z" fill="black"/>
<path d="M118.804 98.9663L124.731 102.861L124.316 103.493L121.728 101.792L120.588 103.527L123.176 105.228L122.767 105.849L116.84 101.955L117.249 101.333L120.107 103.211L121.247 101.476L118.389 99.5981L118.804 98.9663Z" fill="black"/>
<path d="M116.006 103.178L120.595 108.81L119.992 109.572L113.469 106.388L113.975 105.748L115.502 106.466L116.582 105.101L115.515 103.799L116.006 103.178ZM116.896 105.381L115.839 106.717L119.58 108.604L116.896 105.381Z" fill="black"/>
<path d="M112.706 107.27L117.9 112.1L115.539 114.639L110.345 109.81L110.884 109.23L115.674 113.683L116.957 112.304L112.167 107.85L112.706 107.27Z" fill="black"/>
<path d="M109.481 110.663L114.272 115.891L112.653 117.375C112.352 117.651 112.046 117.801 111.733 117.827C111.426 117.859 111.135 117.725 110.859 117.424L109.975 116.46C109.792 116.259 109.648 116.043 109.545 115.812C109.447 115.587 109.429 115.349 109.491 115.097C109.553 114.845 109.735 114.581 110.035 114.305L110.973 113.446L108.906 111.19L109.481 110.663ZM111.273 113.773L110.503 114.478C110.268 114.695 110.155 114.927 110.167 115.177C110.178 115.438 110.322 115.719 110.598 116.02L111.222 116.701C111.46 116.96 111.689 117.098 111.909 117.113C112.134 117.134 112.327 117.072 112.486 116.926L113.397 116.091L111.273 113.773Z" fill="black"/>
<path d="M106.448 113.432L109.566 119.993L108.799 120.591L103.219 115.947L103.863 115.445L105.176 116.506L106.549 115.437L105.823 113.919L106.448 113.432ZM106.788 115.783L105.444 116.83L108.629 119.552L106.788 115.783Z" fill="black"/>
<path d="M102.266 116.624L106.16 122.551L104.325 123.757C103.998 123.973 103.677 124.068 103.365 124.044C103.056 124.026 102.79 123.847 102.566 123.506L102.092 122.784C101.969 122.597 101.886 122.412 101.842 122.23C101.804 122.054 101.803 121.892 101.839 121.744C101.871 121.589 101.943 121.45 102.055 121.329C102.164 121.219 102.26 121.132 102.343 121.068L102.356 121.088C102.222 121.176 102.084 121.243 101.942 121.289C101.797 121.345 101.653 121.359 101.509 121.329C101.347 121.301 101.191 121.231 101.041 121.119C100.889 121.019 100.749 120.871 100.621 120.677L100.055 119.815C99.835 119.481 99.7215 119.191 99.7143 118.947C99.707 118.703 99.7784 118.484 99.9283 118.29C100.076 118.106 100.28 117.929 100.541 117.758L102.266 116.624ZM101.871 117.401L100.889 118.046C100.735 118.147 100.614 118.255 100.527 118.37C100.444 118.492 100.414 118.636 100.437 118.802C100.458 118.98 100.552 119.196 100.719 119.45L101.253 120.262C101.464 120.583 101.686 120.739 101.919 120.729C102.15 120.731 102.385 120.652 102.626 120.494L103.519 119.908L101.871 117.401ZM103.796 120.329L102.923 120.902C102.656 121.078 102.5 121.286 102.456 121.525C102.406 121.769 102.473 122.031 102.657 122.312L103.105 122.994C103.268 123.241 103.453 123.378 103.662 123.403C103.868 123.44 104.065 123.397 104.252 123.274L105.285 122.596L103.796 120.329Z" fill="black"/>
<path d="M98.8569 118.877L99.0614 119.258C98.9275 119.33 98.8453 119.456 98.8148 119.636C98.7881 119.823 98.8377 120.05 98.9637 120.319L101.347 125.591L98.3656 127.192L95.0091 120.945L95.6751 120.587L98.7704 126.348L100.43 125.456L98.2117 120.491C98.1658 120.388 98.1231 120.275 98.0836 120.151C98.0409 120.038 98.0178 119.919 98.0141 119.793C98.0142 119.675 98.0482 119.553 98.116 119.425C98.1768 119.302 98.2934 119.189 98.4658 119.088L98.8569 118.877Z" fill="black"/>
<path d="M93.3457 121.745L96.1328 128.266L93.319 129.469L93.1068 128.972L95.2033 128.076L94.2036 125.737L92.5263 126.453L92.2905 125.902L93.9678 125.185L92.8407 122.548L90.7441 123.444L90.5319 122.947L93.3457 121.745Z" fill="black"/>
<path d="M89.0577 123.536L91.2469 130.282L90.5278 130.515L89.5721 127.57L87.5975 128.211L88.5532 131.156L87.8456 131.386L85.6563 124.64L86.364 124.41L87.4197 127.663L89.3943 127.023L88.3386 123.77L89.0577 123.536Z" fill="black"/>
<path d="M83.703 125.212L85.2175 132.14L84.5492 132.287L83.3654 126.87L82.3804 132.761L81.7122 132.907L80.1978 125.978L80.866 125.832L82.0089 131.061L83.0231 125.361L83.703 125.212Z" fill="black"/>
<path d="M78.1696 126.345L79.069 133.38L76.0337 133.768L75.9652 133.232L78.2268 132.943L77.9042 130.419L76.0949 130.651L76.0188 130.056L77.8281 129.824L77.4644 126.979L75.2028 127.269L75.1343 126.733L78.1696 126.345Z" fill="black"/>
<path d="M68.8028 126.886C69.1548 126.887 69.4667 126.928 69.7384 127.009C70.0021 127.09 70.2134 127.255 70.3725 127.504C70.5235 127.76 70.598 128.145 70.596 128.657L70.5806 132.653C70.5789 133.101 70.5016 133.436 70.3487 133.66C70.1878 133.883 69.9713 134.03 69.699 134.101C69.4187 134.18 69.1065 134.219 68.7625 134.218C68.4105 134.216 68.1027 134.175 67.839 134.094C67.5753 134.013 67.3679 133.86 67.2168 133.636C67.0656 133.411 66.9909 133.079 66.9926 132.639L66.9974 131.391L67.7534 131.394L67.7486 132.654C67.7474 132.966 67.7905 133.198 67.8779 133.35C67.9653 133.511 68.0889 133.615 68.2487 133.664C68.4005 133.712 68.5764 133.737 68.7764 133.738C68.9764 133.738 69.1565 133.715 69.3167 133.668C69.4688 133.62 69.5892 133.517 69.6779 133.357C69.7584 133.205 69.7993 132.974 69.8005 132.662L69.8168 128.45C69.818 128.13 69.779 127.89 69.6996 127.729C69.6122 127.577 69.4926 127.476 69.3407 127.428C69.1809 127.379 69.001 127.355 68.801 127.354C68.593 127.353 68.4129 127.376 68.2608 127.424C68.1086 127.471 67.9882 127.571 67.8996 127.722C67.811 127.882 67.7661 128.122 67.7648 128.442L67.7607 129.51L67.0047 129.507L67.008 128.655C67.01 128.135 67.0875 127.747 67.2405 127.492C67.3934 127.244 67.6021 127.081 67.8664 127.002C68.1307 126.923 68.4428 126.884 68.8028 126.886Z" fill="black"/>
<path d="M65.8061 126.968L65.2051 134.034L61.7496 133.74L62.3506 126.674L63.1398 126.741L62.5855 133.257L64.4627 133.417L65.017 126.901L65.8061 126.968Z" fill="black"/>
<path d="M59.5396 126.107C59.8789 126.164 60.1721 126.253 60.4193 126.376C60.6666 126.498 60.8486 126.695 60.9656 126.966C61.0733 127.243 61.085 127.634 61.0007 128.139L60.3423 132.081C60.2685 132.523 60.1382 132.842 59.9513 133.038C59.7566 133.232 59.5192 133.343 59.239 133.369C58.9576 133.403 58.6472 133.392 58.3079 133.335C57.9686 133.278 57.6753 133.189 57.4281 133.066C57.173 132.942 56.989 132.758 56.8759 132.512C56.755 132.264 56.7308 131.924 56.8033 131.49L57.4597 127.56C57.5454 127.047 57.6882 126.678 57.8882 126.452C58.079 126.232 58.3151 126.105 58.5966 126.071C58.8702 126.036 59.1845 126.048 59.5396 126.107ZM59.4506 126.567C59.2455 126.532 59.064 126.526 58.9062 126.549C58.7391 126.578 58.5997 126.66 58.4878 126.795C58.3747 126.938 58.2924 127.164 58.241 127.472L57.549 131.614C57.4976 131.922 57.5028 132.158 57.5645 132.323C57.6249 132.495 57.7301 132.618 57.88 132.692C58.0286 132.773 58.2015 132.83 58.3988 132.863C58.604 132.898 58.7901 132.9 58.9571 132.871C59.1149 132.849 59.2504 132.766 59.3636 132.623C59.4754 132.488 59.557 132.266 59.6085 131.958L60.3004 127.816C60.3519 127.508 60.3473 127.268 60.2869 127.096C60.2251 126.931 60.1239 126.809 59.9832 126.729C59.8333 126.655 59.6558 126.601 59.4506 126.567Z" fill="black"/>
<path d="M56.5433 125.701L54.8186 132.58L52.6886 132.046C52.2928 131.947 51.998 131.774 51.8041 131.527C51.6083 131.289 51.56 130.971 51.6593 130.576L51.9774 129.307C52.0435 129.043 52.1446 128.805 52.2805 128.591C52.4145 128.386 52.6038 128.239 52.8484 128.152C53.0929 128.065 53.413 128.071 53.8088 128.17L55.0426 128.48L55.7868 125.511L56.5433 125.701ZM54.9346 128.91L53.922 128.656C53.6116 128.578 53.3554 128.613 53.1535 128.761C52.9419 128.914 52.7865 129.188 52.6873 129.584L52.4626 130.48C52.377 130.822 52.3885 131.088 52.497 131.281C52.6036 131.48 52.7616 131.607 52.9711 131.659L54.17 131.96L54.9346 128.91Z" fill="black"/>
<path d="M51.4589 124.314L49.4128 130.538L50.5414 130.909L50.3728 131.422L47.3746 130.436L47.5433 129.923L48.6947 130.302L50.7407 124.078L51.4589 124.314Z" fill="black"/>
<path d="M49.0161 123.522L44.8499 129.473L43.9519 129.101L45.2355 121.956L45.9894 122.269L45.7151 123.934L47.3227 124.6L48.2844 123.219L49.0161 123.522ZM47.1398 124.979L45.5655 124.327L44.7711 128.44L47.1398 124.979Z" fill="black"/>
<path d="M41.7001 120.232L38.1155 126.351L37.5253 126.006L40.3275 121.222L35.6097 124.883L35.0195 124.538L38.6042 118.418L39.1944 118.764L36.4892 123.382L41.0996 119.88L41.7001 120.232Z" fill="black"/>
<path d="M33.3521 114.554C33.629 114.771 33.8498 114.995 34.0144 115.226C34.1727 115.452 34.2382 115.712 34.211 116.005C34.1725 116.301 33.9952 116.65 33.6791 117.052L31.2122 120.196C30.9356 120.549 30.6684 120.766 30.4105 120.848C30.1464 120.926 29.8851 120.909 29.6266 120.798C29.357 120.688 29.0868 120.526 28.8162 120.314C28.5393 120.097 28.3217 119.875 28.1634 119.649C28.0051 119.423 27.9353 119.175 27.954 118.905C27.9727 118.635 28.1179 118.327 28.3896 117.981L29.16 116.999L29.7547 117.466L28.9769 118.457C28.7843 118.703 28.6757 118.912 28.651 119.086C28.6215 119.266 28.6548 119.425 28.7511 119.561C28.841 119.693 28.9647 119.82 29.122 119.944C29.2793 120.067 29.4358 120.16 29.5913 120.221C29.7405 120.277 29.8991 120.269 30.0671 120.197C30.2238 120.127 30.3985 119.969 30.5912 119.724L33.1915 116.41C33.389 116.159 33.5057 115.945 33.5415 115.77C33.5662 115.596 33.5335 115.443 33.4435 115.312C33.3473 115.175 33.2205 115.045 33.0632 114.922C32.8996 114.793 32.7431 114.701 32.5939 114.645C32.4447 114.589 32.2886 114.593 32.1255 114.659C31.9575 114.73 31.7747 114.892 31.5772 115.144L30.9178 115.984L30.3231 115.517L30.8491 114.847C31.1701 114.438 31.4694 114.179 31.7471 114.072C32.0197 113.971 32.2846 113.97 32.5417 114.07C32.7988 114.17 33.0689 114.331 33.3521 114.554Z" fill="black"/>
<path d="M30.5032 112.362L26.0942 117.208L26.9729 118.008L26.6095 118.407L24.275 116.283L24.6384 115.884L25.5349 116.699L29.944 111.853L30.5032 112.362Z" fill="black"/>
<path d="M28.212 110.257L23.0359 115.105L22.5683 114.606L26.6146 110.816L21.0507 112.985L20.5831 112.486L25.7592 107.638L26.2268 108.137L22.3206 111.796L27.7362 109.749L28.212 110.257Z" fill="black"/>
<path d="M24.7895 106.593L24.4477 106.857C24.3547 106.737 24.217 106.677 24.0346 106.676C23.8459 106.68 23.6295 106.767 23.3855 106.935L18.5767 110.152L16.5071 107.475L22.118 103.137L22.5804 103.735L17.4062 107.735L18.5584 109.226L23.0919 106.222C23.1854 106.16 23.2901 106.099 23.4061 106.04C23.5108 105.979 23.6246 105.936 23.7474 105.912C23.864 105.893 23.9906 105.906 24.1273 105.952C24.2591 105.992 24.3893 106.089 24.5179 106.242L24.7895 106.593Z" fill="black"/>
<path d="M19.1673 98.6663L19.586 99.3244L16.8322 101.077L17.296 101.806C17.4163 101.995 17.5819 102.084 17.793 102.072C17.993 102.059 18.2047 102.019 18.428 101.953L20.7906 101.218L21.2416 101.926L18.7934 102.616C18.4516 102.72 18.1789 102.761 17.9752 102.739C17.7647 102.721 17.584 102.608 17.4331 102.401L17.4432 102.395C17.653 102.754 17.73 103.099 17.6742 103.428C17.614 103.751 17.4118 104.022 17.0676 104.241L16.0956 104.859C15.7514 105.078 15.4351 105.133 15.1467 105.022C14.8473 104.909 14.5924 104.687 14.382 104.357L13.1838 102.473L19.1673 98.6663ZM16.3766 101.366L13.9771 102.893L14.6213 103.906C14.7759 104.149 14.9526 104.292 15.1514 104.336C15.3391 104.378 15.5579 104.32 15.8076 104.161L16.6176 103.645C16.9011 103.465 17.0762 103.263 17.1431 103.041C17.2033 102.822 17.1367 102.561 16.9435 102.257L16.3766 101.366Z" fill="black"/>
<path d="M17.5248 95.8768L13.4081 95.6751L11.0319 98.7302L10.6776 97.9422L12.9405 95.1618L12.7978 94.8444L9.88649 96.1533L9.57156 95.4528L12.4828 94.1439L12.3401 93.8265L8.76345 93.6847L8.40424 92.8857L12.2665 93.136L14.8479 89.9229L15.2022 90.7109L12.7511 93.6286L12.8987 93.9569L16.0289 92.5496L16.3439 93.25L13.2137 94.6574L13.3613 94.9857L17.1755 95.0997L17.5248 95.8768Z" fill="black"/>
<path d="M14.6391 89.2491L7.90178 91.4638L7.68818 90.814L12.9549 89.0827L6.99493 88.705L6.78133 88.0552L13.5187 85.8405L13.7323 86.4903L8.64791 88.1616L14.4218 88.5879L14.6391 89.2491Z" fill="black"/>
<path d="M12.6944 82.3853C12.7932 82.814 12.8031 83.1771 12.7239 83.4745C12.6369 83.7737 12.4791 84.0153 12.2506 84.1994C12.0143 84.3852 11.7325 84.5159 11.4051 84.5914L10.7035 84.7532L10.5282 83.9931L11.1246 83.8556C11.5222 83.7639 11.8142 83.6063 12.0007 83.3826C12.1776 83.153 12.2296 82.8619 12.1565 82.5093C12.0828 82.1897 11.9191 81.9606 11.6655 81.8221C11.4101 81.6757 11.1031 81.6439 10.7445 81.7266L10.1014 81.8749C9.75057 81.9557 9.51159 82.1299 9.38442 82.3973C9.25546 82.6569 9.22812 82.9834 9.30241 83.3768L9.45879 84.055L8.99107 84.1628L8.83198 83.4729C8.79064 83.2936 8.71991 83.1293 8.6198 82.98C8.51189 82.8325 8.38389 82.7224 8.2358 82.6499C8.11109 82.5719 7.98578 82.5269 7.85986 82.5149C7.72614 82.5047 7.58912 82.5157 7.44881 82.5481L7.03955 82.6425C6.74332 82.7108 6.51184 82.8462 6.34511 83.0489C6.17058 83.2533 6.12377 83.5309 6.20466 83.8817C6.28734 84.2403 6.4558 84.4724 6.71002 84.578C6.96425 84.6836 7.26286 84.6968 7.60586 84.6177L8.01512 84.5233L8.19038 85.2834L7.67588 85.402C7.16917 85.5189 6.74315 85.4693 6.3978 85.2534C6.05066 85.0297 5.80698 84.6138 5.66677 84.0058C5.52117 83.3743 5.55333 82.8907 5.76326 82.555C5.96359 82.2132 6.31321 81.9848 6.81212 81.8698L7.16292 81.7889C7.56828 81.6954 7.91905 81.7213 8.21524 81.8664C8.50364 82.0134 8.72846 82.2407 8.88971 82.5483C8.86579 82.1598 8.96388 81.8375 9.18399 81.5815C9.3963 81.3273 9.70124 81.1543 10.0988 81.0627L10.5665 80.9548C10.9095 80.8757 11.2231 80.865 11.5073 80.9226C11.7916 80.9802 12.0344 81.1254 12.2358 81.358C12.4373 81.5907 12.5901 81.9331 12.6944 82.3853Z" fill="black"/>
<path d="M11.9325 79.3323L4.90856 80.3126L4.80405 79.5639L7.87033 79.1359L7.58336 77.0798L4.51708 77.5078L4.41423 76.7709L11.4382 75.7906L11.541 76.5274L8.15383 77.0002L8.4408 79.0563L11.828 78.5835L11.9325 79.3323Z" fill="black"/>
<path d="M11.2126 73.774L4.12703 74.0749L4.09801 73.3915L9.63701 73.1563L4.00379 71.1735L3.97477 70.4902L11.0604 70.1892L11.0894 70.8726L5.74223 71.0997L11.1831 73.0786L11.2126 73.774Z" fill="black"/>
<path d="M8.23073 65.3209L7.70518 65.2701L8.07362 61.4599L8.59917 61.5107L8.23073 65.3209Z" fill="black"/>
<path d="M12.2997 57.0428L5.90417 55.6193L5.64607 56.7789L5.11896 56.6616L5.80464 53.581L6.33174 53.6983L6.06842 54.8814L12.4639 56.3049L12.2997 57.0428Z" fill="black"/>
<path d="M12.9875 54.0506L6.19394 52.0148L6.82432 49.9112C6.93684 49.5357 7.12066 49.2568 7.37577 49.0743C7.62321 48.8896 7.94235 48.8558 8.33318 48.9729L9.16082 49.2209C9.37539 49.2852 9.55779 49.3733 9.70801 49.4851C9.85057 49.5946 9.95558 49.718 10.0231 49.8551C10.0982 49.9945 10.132 50.1466 10.1243 50.3114C10.1114 50.4662 10.0938 50.5945 10.0716 50.6964L10.0486 50.6895C10.0945 50.5363 10.1573 50.3964 10.237 50.27C10.3113 50.1335 10.4131 50.0305 10.5426 49.9607C10.6843 49.8779 10.8487 49.8311 11.0357 49.8203C11.2173 49.7996 11.4192 49.8225 11.6414 49.8891L12.63 50.1853C13.0131 50.3002 13.286 50.4487 13.4485 50.631C13.611 50.8134 13.6973 51.0271 13.7073 51.2723C13.712 51.5076 13.6695 51.7746 13.5799 52.0735L12.9875 54.0506ZM12.7907 53.2024L13.1282 52.0759C13.1811 51.8997 13.204 51.7395 13.1971 51.5955C13.1825 51.4491 13.1127 51.3196 12.9877 51.207C12.8574 51.0845 12.6467 50.9796 12.3555 50.8923L11.4244 50.6133C11.0566 50.503 10.7865 50.5265 10.6141 50.6836C10.4364 50.8308 10.3062 51.0423 10.2235 51.3182L9.91692 52.3413L12.7907 53.2024ZM9.43413 52.1966L9.73382 51.1965C9.82567 50.89 9.81142 50.631 9.69105 50.4195C9.57298 50.2004 9.35302 50.0427 9.03116 49.9462L8.2495 49.712C7.96596 49.627 7.73608 49.6416 7.55988 49.7558C7.37831 49.8601 7.25537 50.0195 7.19107 50.2341L6.83627 51.4181L9.43413 52.1966Z" fill="black"/>
<path d="M15.1521 47.9898C15.0265 48.31 14.8782 48.5784 14.7073 48.7949C14.5364 49.0114 14.3063 49.1489 14.0169 49.2072C13.7231 49.2552 13.3379 49.1856 12.8613 48.9986L9.14145 47.5388C8.72441 47.3752 8.43939 47.1817 8.2864 46.9584C8.13633 46.7276 8.07747 46.4725 8.10981 46.193C8.1347 45.9105 8.20998 45.6092 8.33565 45.289C8.46131 44.9688 8.6096 44.7004 8.78051 44.4838C8.95435 44.2599 9.17329 44.118 9.43733 44.0584C9.7043 43.9913 10.0426 44.0381 10.4522 44.1988L14.1608 45.6542C14.6449 45.8442 14.9768 46.0604 15.1567 46.3028C15.332 46.5349 15.4073 46.7922 15.3824 47.0746C15.3604 47.3496 15.2837 47.6546 15.1521 47.9898ZM14.7209 47.8076C14.7969 47.614 14.8403 47.4377 14.8511 47.2786C14.8574 47.1092 14.8059 46.9558 14.6966 46.8184C14.5798 46.678 14.3762 46.5508 14.0857 46.4369L10.176 44.9026C9.88556 44.7886 9.65352 44.7448 9.47988 44.7712C9.29879 44.7947 9.15668 44.8721 9.05355 45.0035C8.94297 45.132 8.85115 45.2893 8.77809 45.4755C8.70211 45.6691 8.66095 45.8506 8.65463 46.02C8.64379 46.1791 8.69676 46.3288 8.81356 46.4691C8.92291 46.6066 9.1228 46.7323 9.41324 46.8463L13.323 48.3806C13.6134 48.4945 13.8492 48.5398 14.0302 48.5163C14.2039 48.4899 14.3445 48.4162 14.4522 48.2952C14.5553 48.1638 14.6449 48.0012 14.7209 47.8076Z" fill="black"/>
<path d="M16.0664 45.3576L9.6875 42.2583L11.0247 39.506L11.5105 39.742L10.5141 41.7927L12.8023 42.9045L13.5994 41.2639L14.1391 41.5261L13.342 43.1667L15.9216 44.42L16.918 42.3693L17.4037 42.6052L16.0664 45.3576ZM9.60467 41.1107C9.55573 41.2115 9.48139 41.2821 9.38167 41.3226C9.27825 41.3524 9.17977 41.3446 9.08622 41.2991C8.99268 41.2537 8.92926 41.1828 8.89596 41.0866C8.86616 40.9832 8.87574 40.8811 8.92468 40.7804C8.97363 40.6796 9.04621 40.6126 9.14244 40.5793C9.23866 40.546 9.33355 40.5521 9.42709 40.5975C9.52064 40.643 9.58765 40.7156 9.62815 40.8153C9.66144 40.9115 9.65362 41.01 9.60467 41.1107ZM10.1133 40.0638C10.0644 40.1645 9.99007 40.2351 9.89035 40.2756C9.78693 40.3054 9.68845 40.2976 9.5949 40.2521C9.50136 40.2067 9.43794 40.1359 9.40464 40.0396C9.37484 39.9362 9.38442 39.8341 9.43336 39.7334C9.48231 39.6326 9.55489 39.5656 9.65112 39.5323C9.74734 39.499 9.84223 39.5051 9.93577 39.5506C10.0293 39.596 10.0963 39.6686 10.1368 39.7683C10.1701 39.8645 10.1623 39.963 10.1133 40.0638Z" fill="black"/>
<path d="M19.6524 38.5608L13.7686 34.6015L14.1906 33.9742L16.7592 35.7027L17.9182 33.9804L15.3496 32.2519L15.765 31.6346L21.6489 35.594L21.2335 36.2113L18.3961 34.3019L17.2371 36.0243L20.0745 37.9336L19.6524 38.5608Z" fill="black"/>
<path d="M22.4566 34.4209L17.9302 28.7393L18.5414 27.9835L25.0295 31.2389L24.5164 31.8734L22.9966 31.1383L21.9026 32.4914L22.9546 33.805L22.4566 34.4209ZM21.5911 32.2086L22.6625 30.8836L18.943 28.9564L21.5911 32.2086Z" fill="black"/>
<path d="M25.7819 30.3814L20.6412 25.4958L23.0302 22.982L28.171 27.8676L27.6254 28.4417L22.8848 23.9363L21.5869 25.302L26.3275 29.8073L25.7819 30.3814Z" fill="black"/>
<path d="M29.0193 27.0334L24.2851 21.7528L25.9202 20.2869C26.224 20.0146 26.5323 19.8671 26.8452 19.8445C27.1526 19.816 27.4426 19.9536 27.7149 20.2574L28.588 21.2313C28.7696 21.4338 28.9107 21.6511 29.0114 21.8832C29.1067 22.1094 29.122 22.3482 29.0573 22.5996C28.9925 22.851 28.8083 23.1129 28.5045 23.3852L27.5574 24.2343L29.6 26.5127L29.0193 27.0334ZM27.261 23.9037L28.0384 23.2068C28.2766 22.9932 28.3912 22.7615 28.3822 22.5117C28.3738 22.2507 28.2334 21.9683 27.9611 21.6645L27.3443 20.9765C27.1093 20.7144 26.8818 20.5745 26.6618 20.5568C26.4365 20.5332 26.2434 20.5935 26.0826 20.7377L25.1623 21.5627L27.261 23.9037Z" fill="black"/>
<path d="M32.0589 24.3028L29.0131 17.708L29.7865 17.1191L35.3145 21.8238L34.6653 22.3181L33.3638 21.2428L31.9795 22.2969L32.689 23.823L32.0589 24.3028ZM31.7441 21.9482L33.0998 20.9159L29.9453 18.1596L31.7441 21.9482Z" fill="black"/>
<path d="M36.2641 21.1555L32.435 15.186L34.2835 14.0003C34.6134 13.7887 34.9346 13.6967 35.247 13.7244C35.5551 13.7454 35.8193 13.9276 36.0396 14.271L36.506 14.9983C36.627 15.1868 36.708 15.3724 36.7492 15.5551C36.786 15.7311 36.7854 15.8931 36.7473 16.0411C36.7135 16.1958 36.64 16.3332 36.5269 16.4533C36.4163 16.5623 36.3193 16.6482 36.2361 16.7111L36.2231 16.6909C36.3578 16.6045 36.4966 16.5393 36.6394 16.4952C36.7846 16.4401 36.929 16.4282 37.0727 16.4596C37.2342 16.4891 37.3894 16.5606 37.5383 16.6742C37.6896 16.7768 37.8279 16.9257 37.9531 17.121L38.5103 17.9896C38.7263 18.3263 38.8366 18.6167 38.8411 18.8609C38.8457 19.1051 38.7719 19.3235 38.6198 19.5161C38.4702 19.6976 38.264 19.8726 38.0014 20.0411L36.2641 21.1555ZM36.6672 20.3837L37.657 19.7487C37.8119 19.6494 37.9336 19.5428 38.0222 19.429C38.1064 19.3084 38.1378 19.1647 38.1164 18.9979C38.0973 18.82 38.0057 18.6032 37.8416 18.3473L37.3168 17.5291C37.1095 17.2059 36.8892 17.0478 36.6561 17.0548C36.4254 17.0507 36.1888 17.1264 35.9464 17.2819L35.0474 17.8585L36.6672 20.3837ZM34.7753 17.4343L35.6541 16.8706C35.9234 16.6978 36.0813 16.492 36.1277 16.2532C36.1808 16.01 36.1167 15.747 35.9353 15.4642L35.4947 14.7774C35.3349 14.5282 35.1509 14.3896 34.9428 14.3615C34.7371 14.3224 34.54 14.3633 34.3515 14.4842L33.3111 15.1515L34.7753 17.4343Z" fill="black"/>
<path d="M39.6466 18.9472L39.4464 18.5644C39.5811 18.494 39.6647 18.369 39.6972 18.1895C39.726 18.0029 39.6788 17.7748 39.5558 17.5051L37.2315 12.2069L40.2301 10.6385L43.5171 16.9228L42.8472 17.2732L39.8161 11.478L38.1466 12.3512L40.3096 17.341C40.3545 17.4439 40.3959 17.5577 40.434 17.6822C40.4754 17.796 40.4973 17.9155 40.4996 18.0407C40.4981 18.1588 40.4628 18.2811 40.3936 18.4076C40.3314 18.5304 40.2135 18.6417 40.04 18.7415L39.6466 18.9472Z" fill="black"/>
<path d="M45.1853 16.1274L42.4715 9.57518L45.2986 8.40424L45.5052 8.90314L43.3988 9.7756L44.3722 12.126L46.0574 11.428L46.287 11.9823L44.6018 12.6803L45.6993 15.33L47.8058 14.4576L48.0124 14.9565L45.1853 16.1274Z" fill="black"/>
<path d="M49.5711 14.3379L47.4584 7.56785L48.1801 7.34264L49.1023 10.2981L51.0841 9.67964L50.1618 6.7242L50.872 6.50256L52.9847 13.2726L52.2745 13.4942L51.2557 10.2295L49.2739 10.8479L50.2928 14.1126L49.5711 14.3379Z" fill="black"/>
<path d="M54.6483 12.7839L53.1867 5.8441L53.8561 5.70314L54.9986 11.1281L56.0284 5.24564L56.6977 5.10468L58.1592 12.0445L57.4899 12.1854L56.387 6.94829L55.3293 12.6404L54.6483 12.7839Z" fill="black"/>
<path d="M60.5369 11.6284L59.7187 4.58374L62.7582 4.2307L62.8205 4.7671L60.5558 5.03015L60.8493 7.55716L62.6611 7.34672L62.7303 7.94271L60.9185 8.15315L61.2494 11.002L63.5142 10.739L63.5765 11.2753L60.5369 11.6284Z" fill="black"/>
<path d="M69.8652 11.1803C69.5133 11.1748 69.2019 11.13 68.9312 11.0458C68.6684 10.9618 68.459 10.7945 68.3029 10.5441C68.1548 10.2858 68.0848 9.90064 68.0927 9.3887L68.1544 5.39318C68.1613 4.94523 68.2425 4.61044 68.3979 4.38882C68.5613 4.16731 68.7796 4.02267 69.0527 3.95488C69.3339 3.87921 69.6465 3.84403 69.9904 3.84934C70.3424 3.85478 70.6497 3.89953 70.9125 3.98359C71.1752 4.06766 71.3808 4.22285 71.5293 4.44917C71.6779 4.67549 71.7487 5.00863 71.7419 5.44857L71.7227 6.69643L70.9668 6.68475L70.9862 5.4249C70.991 5.11294 70.9506 4.88029 70.865 4.72695C70.7795 4.56561 70.6571 4.45971 70.4978 4.40924C70.3466 4.3589 70.171 4.33219 69.971 4.3291C69.771 4.32601 69.5907 4.34723 69.43 4.39275C69.2772 4.4384 69.1556 4.54054 69.0652 4.69916C68.9828 4.8499 68.9393 5.08126 68.9345 5.39322L68.8694 9.60472C68.8645 9.92468 68.9008 10.1653 68.9783 10.3265C69.0639 10.4798 69.1824 10.5817 69.3336 10.632C69.4929 10.6825 69.6725 10.7093 69.8724 10.7123C70.0804 10.7156 70.2608 10.6943 70.4135 10.6487C70.5662 10.603 70.6877 10.5049 70.7781 10.3543C70.8685 10.1957 70.9162 9.95636 70.9212 9.6364L70.9377 8.56853L71.6936 8.5802L71.6804 9.4321C71.6724 9.95204 71.5904 10.3388 71.4345 10.5924C71.2787 10.8381 71.0682 10.9988 70.803 11.0747C70.5378 11.1507 70.2252 11.1858 69.8652 11.1803Z" fill="black"/>
<path d="M72.5489 11.1009L73.2043 4.03927L76.6575 4.35977L76.0021 11.4214L75.2135 11.3482L75.8179 4.83621L73.9419 4.6621L73.3375 11.1741L72.5489 11.1009Z" fill="black"/>
<path d="M78.8129 11.9906C78.474 11.9313 78.1815 11.8395 77.9352 11.7152C77.6889 11.5909 77.5084 11.3929 77.3935 11.121C77.2879 10.8426 77.2792 10.4513 77.3674 9.94695L78.056 6.01072C78.1331 5.56942 78.2659 5.25154 78.4542 5.05708C78.6504 4.864 78.8887 4.75543 79.169 4.73138C79.4508 4.69944 79.761 4.71311 80.0999 4.77238C80.4388 4.83166 80.7313 4.92344 80.9776 5.04773C81.2317 5.17341 81.4144 5.35966 81.5255 5.6065C81.6445 5.85472 81.6661 6.19554 81.5903 6.62896L80.9038 10.5534C80.8142 11.0656 80.6686 11.434 80.4668 11.6586C80.2744 11.8767 80.0373 12.0017 79.7556 12.0337C79.4817 12.067 79.1675 12.0526 78.8129 11.9906ZM78.9054 11.5317C79.1102 11.5675 79.2917 11.5749 79.4497 11.5538C79.6169 11.5262 79.757 11.4451 79.8699 11.3105C79.9841 11.1681 80.0681 10.9432 80.1219 10.6359L80.8456 6.49869C80.8994 6.19136 80.896 5.95525 80.8355 5.79036C80.7764 5.61759 80.6722 5.49378 80.5228 5.41893C80.3749 5.3362 80.2024 5.2776 80.0054 5.24314C79.8005 5.2073 79.6144 5.20317 79.4472 5.23077C79.2892 5.25186 79.153 5.33363 79.0388 5.47607C78.9259 5.61063 78.8426 5.83158 78.7888 6.13891L78.0651 10.2761C78.0114 10.5834 78.014 10.8235 78.0732 10.9962C78.1337 11.1611 78.2339 11.2843 78.374 11.3656C78.5234 11.4405 78.7005 11.4958 78.9054 11.5317Z" fill="black"/>
<path d="M82.1251 12.4792L83.9281 5.62023L86.0519 6.17852C86.4465 6.28224 86.7393 6.45847 86.9304 6.70721C87.1234 6.94822 87.1681 7.26601 87.0644 7.66061L86.7319 8.92563C86.6627 9.1887 86.559 9.42612 86.4206 9.63789C86.2842 9.84193 86.0933 9.98613 85.8478 10.0705C85.6023 10.1548 85.2822 10.1452 84.8876 10.0414L83.6574 9.71806L82.8795 12.6775L82.1251 12.4792ZM83.7703 9.28865L84.78 9.55406C85.0895 9.63541 85.346 9.60358 85.5495 9.45856C85.7629 9.30785 85.9214 9.03519 86.0251 8.64059L86.26 7.74695C86.3495 7.40652 86.3411 7.13961 86.2348 6.94622C86.1305 6.7451 85.9739 6.61708 85.765 6.56217L84.5696 6.24794L83.7703 9.28865Z" fill="black"/>
<path d="M87.053 13.868L89.1693 7.66719L88.0449 7.28348L88.2193 6.77242L91.2062 7.79179L91.0318 8.30285L89.8847 7.91138L87.7685 14.1122L87.053 13.868Z" fill="black"/>
<path d="M89.6967 14.756L93.9292 8.8524L94.823 9.23439L93.4594 16.3641L92.7091 16.0435L93.002 14.3808L91.402 13.697L90.4249 15.0673L89.6967 14.756ZM91.5892 13.3202L93.1561 13.9899L93.9965 9.88598L91.5892 13.3202Z" fill="black"/>
<path d="M96.9336 18.1L100.586 12.0206L101.172 12.3728L98.3171 17.1252L103.075 13.516L103.661 13.8682L100.009 19.9476L99.423 19.5954L102.179 15.0075L97.5302 18.4584L96.9336 18.1Z" fill="black"/>
<path d="M105.122 23.7822C104.848 23.5619 104.629 23.3354 104.467 23.1028C104.311 22.8752 104.249 22.6146 104.279 22.321C104.321 22.0262 104.502 21.6792 104.822 21.2799L107.324 18.1634C107.604 17.814 107.874 17.5996 108.132 17.52C108.397 17.4454 108.658 17.4652 108.916 17.5793C109.184 17.6922 109.452 17.8563 109.721 18.0716C109.995 18.2919 110.21 18.5159 110.366 18.7435C110.522 18.9712 110.589 19.2199 110.567 19.4897C110.546 19.7596 110.397 20.0661 110.122 20.4092L109.341 21.3825L108.751 20.9093L109.54 19.9267C109.735 19.6833 109.846 19.4749 109.872 19.3012C109.904 19.1214 109.872 18.9626 109.778 18.8251C109.689 18.6925 109.567 18.5636 109.411 18.4384C109.255 18.3132 109.1 18.2193 108.945 18.1566C108.796 18.0989 108.637 18.1049 108.469 18.1746C108.311 18.243 108.135 18.3989 107.939 18.6423L105.303 21.9272C105.103 22.1767 104.984 22.3889 104.946 22.5638C104.919 22.7374 104.95 22.8905 105.039 23.0231C105.134 23.1607 105.259 23.2921 105.415 23.4172C105.577 23.5474 105.733 23.6414 105.881 23.6991C106.03 23.7568 106.186 23.7539 106.35 23.6904C106.519 23.6207 106.703 23.4611 106.903 23.2115L107.572 22.3786L108.161 22.8518L107.628 23.5163C107.303 23.9218 107.001 24.1769 106.722 24.2814C106.448 24.3796 106.183 24.3774 105.927 24.2745C105.671 24.1717 105.403 24.0076 105.122 23.7822Z" fill="black"/>
<path d="M108.004 26.0404L112.465 21.2422L111.595 20.4332L111.963 20.0378L114.274 22.1868L113.906 22.5823L113.019 21.757L108.557 26.5552L108.004 26.0404Z" fill="black"/>
<path d="M110.274 28.1532L115.503 23.3617L115.965 23.866L111.878 27.6116L117.465 25.5027L117.927 26.007L112.698 30.7984L112.236 30.2942L116.182 26.6783L110.744 28.6663L110.274 28.1532Z" fill="black"/>
<path d="M113.601 31.7618L113.946 31.5013C114.038 31.6226 114.175 31.6845 114.357 31.687C114.546 31.6847 114.763 31.6007 115.009 31.435L119.853 28.271L121.893 30.9707L116.235 35.2466L115.779 34.6434L120.997 30.7004L119.861 29.1973L115.295 32.1516C115.201 32.2127 115.095 32.2723 114.979 32.3303C114.873 32.3899 114.759 32.4311 114.636 32.454C114.519 32.472 114.393 32.4573 114.256 32.4098C114.125 32.3687 113.996 32.2707 113.869 32.116L113.601 31.7618Z" fill="black"/>
<path d="M119.275 39.9276L118.864 39.265L121.637 37.5432L121.181 36.8092C121.063 36.6189 120.898 36.5281 120.687 36.5368C120.487 36.5481 120.275 36.5856 120.051 36.6494L117.68 37.3586L117.237 36.6449L119.693 35.9818C120.035 35.8819 120.309 35.8442 120.512 35.8685C120.722 35.8886 120.902 36.0032 121.05 36.2123L121.04 36.2186C120.834 35.8567 120.761 35.5114 120.821 35.1825C120.884 34.8605 121.089 34.5919 121.436 34.3766L122.415 33.769C122.761 33.5538 123.078 33.503 123.365 33.6166C123.664 33.7328 123.916 33.9574 124.123 34.2904L125.3 36.1867L119.275 39.9276ZM122.095 37.2584L124.512 35.7582L123.879 34.7387C123.727 34.4941 123.551 34.3485 123.353 34.3022C123.166 34.2584 122.947 34.3145 122.695 34.4707L121.879 34.9771C121.594 35.1543 121.417 35.3539 121.347 35.5759C121.285 35.7936 121.348 36.0554 121.538 36.3613L122.095 37.2584Z" fill="black"/>
<path d="M120.867 42.683L124.982 42.9306L127.392 39.9023L127.737 40.6942L125.444 43.4492L125.583 43.7682L128.508 42.4919L128.816 43.1958L125.89 44.4721L126.029 44.7911L129.604 44.9729L129.954 45.7758L126.095 45.4824L123.478 48.6664L123.132 47.8745L125.616 44.9844L125.472 44.6544L122.326 46.0267L122.019 45.3227L125.165 43.9505L125.021 43.6205L121.208 43.4639L120.867 42.683Z" fill="black"/>
<path d="M123.688 49.3459L130.45 47.2077L130.656 47.8599L125.37 49.5314L131.326 49.9765L131.532 50.6287L124.77 52.767L124.564 52.1148L129.667 50.5012L123.898 50.0096L123.688 49.3459Z" fill="black"/>
<path d="M125.579 56.3013C125.485 55.8714 125.479 55.5083 125.562 55.2118C125.652 54.9136 125.812 54.6738 126.043 54.4924C126.281 54.3093 126.565 54.1818 126.893 54.1101L127.596 53.9563L127.763 54.7183L127.165 54.849C126.766 54.9361 126.473 55.0904 126.284 55.3119C126.104 55.5395 126.049 55.83 126.118 56.1834C126.188 56.5038 126.349 56.7348 126.601 56.8762C126.855 57.0255 127.161 57.0608 127.521 56.9822L128.166 56.8413C128.517 56.7644 128.758 56.593 128.888 56.3271C129.02 56.069 129.051 55.7428 128.982 55.3486L128.833 54.6687L129.302 54.5662L129.453 55.2578C129.492 55.4376 129.561 55.6027 129.66 55.7532C129.766 55.9019 129.893 56.0134 130.04 56.0877C130.164 56.1671 130.288 56.2135 130.414 56.227C130.548 56.2387 130.685 56.2292 130.826 56.1985L131.236 56.1088C131.533 56.0439 131.766 55.911 131.935 55.7103C132.112 55.5079 132.162 55.2308 132.085 54.8791C132.006 54.5196 131.841 54.2856 131.588 54.1771C131.335 54.0686 131.036 54.052 130.692 54.1272L130.282 54.2168L130.115 53.4548L130.631 53.3421C131.139 53.231 131.565 53.2855 131.908 53.5053C132.252 53.733 132.491 54.1516 132.624 54.7612C132.763 55.3943 132.725 55.8775 132.511 56.2108C132.307 56.5503 131.955 56.7746 131.455 56.884L131.103 56.9608C130.696 57.0497 130.346 57.0198 130.051 56.8713C129.765 56.721 129.543 56.4912 129.385 56.1817C129.404 56.5705 129.303 56.8917 129.08 57.1452C128.864 57.3969 128.557 57.5664 128.159 57.6535L127.69 57.756C127.346 57.8311 127.032 57.8383 126.749 57.7774C126.465 57.7166 126.224 57.5687 126.025 57.3337C125.827 57.0987 125.678 56.7546 125.579 56.3013Z" fill="black"/>
<path d="M126.307 59.3636L133.342 58.4642L133.438 59.2141L130.367 59.6068L130.63 61.666L133.701 61.2734L133.795 62.0114L126.76 62.9107L126.666 62.1728L130.059 61.739L129.795 59.6798L126.403 60.1135L126.307 59.3636Z" fill="black"/>
<path d="M126.967 64.9624L134.056 64.7435L134.077 65.4271L128.535 65.5983L134.145 67.6461L134.166 68.3298L127.078 68.5487L127.057 67.865L132.406 67.6998L126.989 65.6581L126.967 64.9624Z" fill="black"/>
</svg>
