<svg width="20" height="16" viewBox="0 0 20 16" fill="none" xmlns="http://www.w3.org/2000/svg">
<path d="M14.4179 6.75015H19.3329C19.3922 6.75017 19.4504 6.76711 19.5005 6.79899C19.5506 6.83086 19.5906 6.87635 19.6157 6.93012C19.6409 6.9839 19.6503 7.04373 19.6427 7.10263C19.6351 7.16152 19.6109 7.21703 19.5729 7.26265L17.1154 10.2127C17.086 10.2478 17.0493 10.2761 17.0079 10.2955C16.9664 10.3149 16.9211 10.325 16.8754 10.325C16.8296 10.325 16.7843 10.3149 16.7429 10.2955C16.7014 10.2761 16.6647 10.2478 16.6354 10.2127L14.1779 7.26265C14.1398 7.21703 14.1156 7.16152 14.108 7.10263C14.1004 7.04373 14.1098 6.9839 14.135 6.93012C14.1601 6.87635 14.2001 6.83086 14.2502 6.79899C14.3003 6.76711 14.3585 6.75017 14.4179 6.75015ZM0.667852 9.25015H5.58285C5.64223 9.25013 5.70038 9.23319 5.75048 9.20132C5.80058 9.16944 5.84056 9.12396 5.86574 9.07018C5.89092 9.01641 5.90026 8.95657 5.89267 8.89768C5.88507 8.83879 5.86085 8.78328 5.82285 8.73765L3.36535 5.78765C3.33602 5.75248 3.29932 5.72419 3.25785 5.70477C3.21638 5.68536 3.17114 5.67529 3.12535 5.67529C3.07956 5.67529 3.03433 5.68536 2.99285 5.70477C2.95138 5.72419 2.91468 5.75248 2.88535 5.78765L0.427852 8.73765C0.389849 8.78328 0.365632 8.83879 0.358036 8.89768C0.350441 8.95657 0.359781 9.01641 0.384963 9.07018C0.410146 9.12396 0.450128 9.16944 0.500228 9.20132C0.550328 9.23319 0.608472 9.25013 0.667852 9.25015Z" fill="white"/>
<path fill-rule="evenodd" clip-rule="evenodd" d="M10.0007 1.75017C8.06074 1.75017 6.32574 2.63392 5.17949 4.02267C5.12831 4.08901 5.06431 4.14438 4.99129 4.18549C4.91828 4.2266 4.83775 4.25261 4.75448 4.26197C4.67121 4.27134 4.58691 4.26386 4.50659 4.23999C4.42628 4.21612 4.35158 4.17634 4.28694 4.12302C4.2223 4.0697 4.16905 4.00393 4.13034 3.92961C4.09163 3.8553 4.06826 3.77396 4.06162 3.69043C4.05498 3.6069 4.0652 3.52289 4.09167 3.44339C4.11815 3.3639 4.16034 3.29053 4.21574 3.22767C5.13098 2.11958 6.34523 1.29768 7.71407 0.859738C9.08291 0.421794 10.5487 0.386232 11.9372 0.75728C13.3257 1.12833 14.5784 1.89037 15.5463 2.95278C16.5142 4.01518 17.1565 5.33323 17.397 6.75017H16.1257C15.8371 5.33868 15.07 4.07016 13.9539 3.1591C12.8379 2.24804 11.4414 1.75035 10.0007 1.75017V1.75017ZM3.87574 9.25017C4.11238 10.4059 4.67118 11.4712 5.48759 12.3228C6.304 13.1745 7.34469 13.7778 8.48945 14.063C9.6342 14.3483 10.8363 14.3038 11.9569 13.9348C13.0774 13.5658 14.0707 12.8873 14.822 11.9777C14.8732 11.9113 14.9372 11.856 15.0102 11.8148C15.0832 11.7737 15.1637 11.7477 15.247 11.7384C15.3303 11.729 15.4146 11.7365 15.4949 11.7603C15.5752 11.7842 15.6499 11.824 15.7145 11.8773C15.7792 11.9306 15.8324 11.9964 15.8711 12.0707C15.9099 12.145 15.9332 12.2264 15.9399 12.3099C15.9465 12.3934 15.9363 12.4774 15.9098 12.5569C15.8833 12.6364 15.8411 12.7098 15.7857 12.7727C14.8705 13.8808 13.6563 14.7027 12.2874 15.1406C10.9186 15.5785 9.45274 15.6141 8.06427 15.2431C6.6758 14.872 5.42312 14.11 4.45523 13.0476C3.48733 11.9852 2.84495 10.6671 2.60449 9.25017H3.87574Z" fill="white"/>
</svg>
