<svg width="30" height="26" viewBox="0 0 30 26" fill="none" xmlns="http://www.w3.org/2000/svg">
<path d="M22.4807 5.01172H3C1.89543 5.01172 1 5.90715 1 7.01172V23.0703C1 24.1748 1.89543 25.0703 3 25.0703H22.4807C23.5853 25.0703 24.4807 24.1748 24.4807 23.0703V7.01172C24.4807 5.90715 23.5853 5.01172 22.4807 5.01172Z" fill="#DBFF4E" stroke="black" stroke-miterlimit="10"/>
<path d="M5.06738 4.00878V1H28.9997V21.0586H25.3873" fill="#DBFF4E"/>
<path d="M5.06738 4.00878V1H28.9997V21.0586H25.3873" stroke="black" stroke-miterlimit="10"/>
<path d="M1 20.0556L7.32174 13.0352L13.6435 21.0586L18.159 18.0498L24.4807 24.0674" fill="#DBFF4E"/>
<path d="M1 20.0556L7.32174 13.0352L13.6435 21.0586L18.159 18.0498L24.4807 24.0674" stroke="black" stroke-miterlimit="10"/>
<path d="M18.6132 14.0381C19.8602 14.0381 20.871 12.9155 20.871 11.5308C20.871 10.146 19.8602 9.02344 18.6132 9.02344C17.3663 9.02344 16.3555 10.146 16.3555 11.5308C16.3555 12.9155 17.3663 14.0381 18.6132 14.0381Z" fill="#DBFF4E" stroke="black" stroke-miterlimit="10"/>
</svg>
